# xmcd
#
# Track frame offsets: 
#        150
#        17439
#        37176
#        55130
#        72686
#        89776
#        106501
#        124992
#        143151
#        160190
#
# Disc length: 2337 seconds
#
# Revision: 0
# Processed by: cddbd v1.5.2PL0 Copyright (c) Steve Scherf et al.
# Submitted via: ExactAudioCopy v1.0b1
#
DISCID=8b091f0a
DTITLE=Willie Nelson - Without A Song
DYEAR=1984
DGENRE=Country
TTITLE0=Without A Song
TTITLE1=Once In A While
TTITLE2=Autumn Leaves
TTITLE3=I Can't Begin To Tell You
TTITLE4=Harbor Lights
TTITLE5=Golden Earrings
TTITLE6=You'll Never Know
TTITLE7=To Each His Own
TTITLE8=As Time Goes By
TTITLE9=A Dreamer's Holiday
EXTD=
EXTT0=
EXTT1=
EXTT2=
EXTT3=
EXTT4=
EXTT5=
EXTT6=
EXTT7=
EXTT8=
EXTT9=
PLAYORDER=
